<svg width="18" height="19" viewBox="0 0 18 19" fill="none" xmlns="http://www.w3.org/2000/svg">
<g clip-path="url(#clip0_668_1490)">
<path d="M16.8947 13.5133C16.8649 13.4886 13.4961 11.0777 12.582 11.2358C12.1427 11.3134 11.8913 11.6126 11.3878 12.2128C11.3068 12.3096 11.1116 12.5408 10.9609 12.7056C10.6427 12.6019 10.3323 12.4756 10.0322 12.3276C8.48279 11.5733 7.23093 10.3214 6.47662 8.77201C6.32861 8.47187 6.20229 8.16152 6.09863 7.84332C6.264 7.69201 6.49575 7.49682 6.59475 7.41357C7.19156 6.91295 7.49081 6.66151 7.56844 6.22164C7.72762 5.31095 5.31563 1.93932 5.29087 1.90895C5.18103 1.75317 5.03797 1.62372 4.87202 1.52995C4.70607 1.43617 4.52137 1.38042 4.33125 1.3667C3.35362 1.3667 0.5625 4.98695 0.5625 5.59726C0.5625 5.6327 0.613688 9.23495 5.05575 13.7535C9.56925 18.1905 13.1715 18.2417 13.2069 18.2417C13.8173 18.2417 17.4375 15.4506 17.4375 14.4729C17.4238 14.2828 17.368 14.098 17.2741 13.932C17.1802 13.7661 17.0506 13.6231 16.8947 13.5133ZM13.1451 17.1133C12.6534 17.0728 9.63056 16.674 5.85113 12.9609C2.11894 9.16126 1.73025 6.12995 1.69144 5.66026C2.42875 4.503 3.3192 3.45077 4.33856 2.5322C4.36106 2.5547 4.39088 2.58845 4.42913 2.63232C5.2109 3.69952 5.88436 4.84198 6.4395 6.04276C6.25897 6.22438 6.06816 6.39547 5.868 6.5552C5.55761 6.7917 5.27258 7.05976 5.0175 7.35507L4.88081 7.54632L4.92131 7.77751C5.04035 8.29317 5.22267 8.79214 5.46412 9.26307C6.32919 11.0395 7.76462 12.4747 9.54113 13.3395C10.012 13.5813 10.511 13.7638 11.0267 13.8829L11.2579 13.9234L11.4491 13.7867C11.7456 13.5305 12.0147 13.2443 12.2524 12.9328C12.4284 12.7224 12.6641 12.4418 12.753 12.3624C13.9572 12.917 15.1026 13.5913 16.1719 14.3751C16.2186 14.4144 16.2512 14.4448 16.2731 14.4645C15.3547 15.4842 14.3025 16.3748 13.1451 17.1122V17.1133Z" fill="#8DABCC"/>
</g>
<defs>
<clipPath id="clip0_668_1490">
<rect width="18" height="18" fill="white" transform="translate(0 0.804199)"/>
</clipPath>
</defs>
</svg>
