<svg width="30" height="30" viewBox="0 0 30 30" fill="none" xmlns="http://www.w3.org/2000/svg">
<path d="M24.375 8.38125C24.3606 8.14249 24.2556 7.91824 24.0813 7.75441C23.907 7.59058 23.6767 7.49957 23.4375 7.5H20.625C20.625 6.00816 20.0324 4.57742 18.9775 3.52252C17.9226 2.46763 16.4918 1.875 15 1.875C13.5082 1.875 12.0774 2.46763 11.0225 3.52252C9.96763 4.57742 9.375 6.00816 9.375 7.5H6.5625C6.32331 7.49957 6.09299 7.59058 5.91871 7.75441C5.74442 7.91824 5.63935 8.14249 5.625 8.38125L4.6875 23.7937C4.6875 24.6938 5.04505 25.557 5.68151 26.1935C6.31796 26.8299 7.18117 27.1875 8.08125 27.1875H21.9187C22.3688 27.1863 22.8142 27.0958 23.2291 26.9213C23.644 26.7468 24.0201 26.4918 24.3358 26.1709C24.6514 25.85 24.9003 25.4697 25.0679 25.052C25.2356 24.6344 25.3187 24.1875 25.3125 23.7375L24.375 8.38125ZM15 3.75C15.9946 3.75 16.9484 4.14509 17.6516 4.84835C18.3549 5.55161 18.75 6.50544 18.75 7.5H11.25C11.25 6.50544 11.6451 5.55161 12.3483 4.84835C13.0516 4.14509 14.0054 3.75 15 3.75ZM21.9187 25.3125H8.08125C7.6866 25.3176 7.30587 25.1669 7.02157 24.8931C6.73728 24.6193 6.57233 24.2446 6.5625 23.85L7.44375 9.375H9.375V12.1875C9.375 12.4361 9.47377 12.6746 9.64959 12.8504C9.8254 13.0262 10.0639 13.125 10.3125 13.125C10.5611 13.125 10.7996 13.0262 10.9754 12.8504C11.1512 12.6746 11.25 12.4361 11.25 12.1875V9.375H18.75V12.1875C18.75 12.4361 18.8488 12.6746 19.0246 12.8504C19.2004 13.0262 19.4389 13.125 19.6875 13.125C19.9361 13.125 20.1746 13.0262 20.3504 12.8504C20.5262 12.6746 20.625 12.4361 20.625 12.1875V9.375H22.5562L23.4375 23.7937C23.4387 23.9935 23.4003 24.1916 23.3244 24.3764C23.2485 24.5612 23.1367 24.7292 22.9954 24.8704C22.8542 25.0117 22.6862 25.1235 22.5014 25.1994C22.3166 25.2753 22.1185 25.3137 21.9187 25.3125Z" fill="#0E6FC8"/>
</svg>
