<svg width="18" height="19" viewBox="0 0 18 19" fill="none" xmlns="http://www.w3.org/2000/svg">
<path fill-rule="evenodd" clip-rule="evenodd" d="M9 4.7417C7.6545 4.7417 6.5625 5.8337 6.5625 7.1792C6.5625 8.5247 7.6545 9.6167 9 9.6167C10.3455 9.6167 11.4375 8.5247 11.4375 7.1792C11.4375 5.8337 10.3455 4.7417 9 4.7417ZM9 5.8667C9.7245 5.8667 10.3125 6.4547 10.3125 7.1792C10.3125 7.9037 9.7245 8.4917 9 8.4917C8.2755 8.4917 7.6875 7.9037 7.6875 7.1792C7.6875 6.4547 8.2755 5.8667 9 5.8667Z" fill="#8DABCC"/>
<path fill-rule="evenodd" clip-rule="evenodd" d="M9 1.7417C5.89575 1.7417 3.375 4.26245 3.375 7.3667C3.375 8.82245 3.927 10.2819 4.68975 11.5869C5.7915 13.4709 7.32525 15.0287 8.115 15.7674C8.11725 15.7689 8.11875 15.7704 8.12025 15.7719C8.619 16.2264 9.38175 16.2264 9.87975 15.7712C9.88125 15.7697 9.88275 15.7689 9.88425 15.7674C10.6747 15.0287 12.2085 13.4709 13.3102 11.5869C14.073 10.2819 14.625 8.82245 14.625 7.3667C14.625 4.26245 12.1042 1.7417 9 1.7417ZM9 2.8667C11.4832 2.8667 13.5 4.88345 13.5 7.3667C13.5 8.62895 13.0005 9.8882 12.339 11.0192C11.3055 12.7869 9.864 14.2464 9.12 14.9417C9.0525 15.0024 8.95125 15.0032 8.88225 14.9447C8.13525 14.2464 6.6945 12.7862 5.661 11.0192C4.9995 9.8882 4.5 8.62895 4.5 7.3667C4.5 4.88345 6.51675 2.8667 9 2.8667Z" fill="#8DABCC"/>
<path fill-rule="evenodd" clip-rule="evenodd" d="M4.5 17.8667H13.5C13.8105 17.8667 14.0625 17.6147 14.0625 17.3042C14.0625 16.9937 13.8105 16.7417 13.5 16.7417H4.5C4.1895 16.7417 3.9375 16.9937 3.9375 17.3042C3.9375 17.6147 4.1895 17.8667 4.5 17.8667Z" fill="#8DABCC"/>
</svg>
