<svg width="25" height="26" viewBox="0 0 25 26" fill="none" xmlns="http://www.w3.org/2000/svg">
<g clip-path="url(#clip0_668_1510)">
<path d="M22.475 13.7226C22.3542 13.1737 22.0865 12.7135 21.6728 12.3416C21.2587 11.9696 20.7822 11.751 20.2426 11.6859C18.5314 11.4999 15.9505 11.407 12.4998 11.407C9.04911 11.407 6.47287 11.5 4.7708 11.6859C4.2222 11.751 3.74324 11.9696 3.33386 12.3416C2.92458 12.7136 2.65485 13.1739 2.52458 13.7226C2.2828 14.8017 2.16187 16.4292 2.16187 18.6056C2.16187 20.8191 2.2828 22.4468 2.52458 23.4886C2.64566 24.0371 2.9131 24.4978 3.32697 24.8695C3.74085 25.2416 4.21751 25.4554 4.75687 25.5113C6.46837 25.7066 9.0494 25.8043 12.4999 25.8043C15.9501 25.8043 18.5316 25.7066 20.2425 25.5113C20.7821 25.4554 21.2563 25.2416 21.6657 24.8695C22.075 24.4978 22.3447 24.0371 22.4749 23.4886C22.7166 22.4095 22.8377 20.782 22.8377 18.6056C22.8377 16.3921 22.7166 14.7644 22.475 13.7226ZM8.06363 15.132H6.57089V23.0699H5.17588V15.132H3.71094V13.8206H8.06367V15.132H8.06363ZM11.8303 23.0699H10.5887V22.3163C10.0864 22.8839 9.61192 23.1675 9.1655 23.1675C8.73775 23.1675 8.46797 22.9953 8.35651 22.6513C8.28219 22.4281 8.24481 22.0884 8.24481 21.6328V16.1781H9.48644V21.2562C9.48644 21.5537 9.49113 21.7165 9.50051 21.7445C9.52841 21.9398 9.62599 22.0374 9.7935 22.0374C10.0446 22.0374 10.3098 21.8421 10.5887 21.4515V16.1781H11.8303L11.8303 23.0699ZM16.5736 21.005C16.5736 21.684 16.5319 22.1493 16.4485 22.4005C16.29 22.9117 15.9601 23.1675 15.4579 23.1675C15.0115 23.1675 14.5791 22.9117 14.1603 22.4005V23.07H12.9189V13.8206H14.1603V16.848C14.5604 16.346 14.9927 16.0948 15.4579 16.0948C15.9601 16.0948 16.29 16.3553 16.4485 16.8761C16.5318 17.1178 16.5736 17.5782 16.5736 18.2571V21.005ZM21.2891 19.8612H18.792V21.075C18.792 21.7167 19.0057 22.0374 19.4336 22.0374C19.7404 22.0374 19.9266 21.8702 19.9916 21.5351C20.01 21.4422 20.0195 21.1586 20.0195 20.6843H21.289V20.8656C21.289 21.3214 21.2795 21.591 21.2611 21.6749C21.2334 21.9257 21.136 22.1769 20.9681 22.428C20.6333 22.921 20.1307 23.1675 19.4611 23.1675C18.8197 23.1675 18.3174 22.9303 17.9545 22.4561C17.6849 22.112 17.5502 21.5725 17.5502 20.8378V18.4241C17.5502 17.6894 17.6803 17.1499 17.9405 16.8058C18.3034 16.3316 18.8009 16.0944 19.4336 16.0944C20.0568 16.0944 20.5501 16.3316 20.9123 16.8058C21.1638 17.1499 21.2891 17.6894 21.2891 18.4241V19.8612Z" fill="#8DABCC"/>
<path d="M14.7877 17.2246C14.5736 17.2246 14.3646 17.3273 14.1599 17.5316V21.7307C14.3646 21.9352 14.5736 22.0375 14.7877 22.0375C15.1502 22.0375 15.332 21.7261 15.332 21.1027V18.1594C15.332 17.5361 15.1506 17.2246 14.7877 17.2246Z" fill="#8DABCC"/>
<path d="M19.4197 17.2246C19.0012 17.2246 18.792 17.541 18.792 18.1731V18.8148H20.0474V18.1731C20.0474 17.5407 19.8381 17.2246 19.4197 17.2246Z" fill="#8DABCC"/>
<path d="M7.25475 6.37061V10.1514H8.64976V6.37061L10.3376 0.804199H8.9146L7.96615 4.47333L6.97554 0.804199H5.49683C5.75727 1.58553 6.05954 2.45506 6.40369 3.41308C6.84087 4.69649 7.12438 5.68251 7.25475 6.37061Z" fill="#8DABCC"/>
<path d="M12.207 10.249C12.8488 10.249 13.3416 10.0118 13.6857 9.5375C13.9463 9.19335 14.0763 8.64456 14.0763 7.89133V5.4498C14.0763 4.70585 13.9459 4.16161 13.6857 3.81746C13.3416 3.34314 12.8488 3.10596 12.207 3.10596C11.5837 3.10596 11.0954 3.34314 10.7421 3.81746C10.4818 4.16161 10.3516 4.70585 10.3516 5.4498V7.89128C10.3516 8.63523 10.4816 9.18407 10.7421 9.53745C11.0955 10.0118 11.5837 10.249 12.207 10.249ZM11.607 5.19864C11.607 4.55687 11.807 4.23598 12.207 4.23598C12.607 4.23598 12.8068 4.55687 12.8068 5.19864V8.12827C12.8068 8.77952 12.607 9.10481 12.207 9.10481C11.807 9.10481 11.607 8.77933 11.607 8.12827V5.19864Z" fill="#8DABCC"/>
<path d="M16.0432 10.2492C16.5085 10.2492 16.9876 9.96089 17.4804 9.3841V10.1514H18.7499V3.18994H17.4804V8.50519C17.2013 8.90519 16.9364 9.10499 16.6849 9.10499C16.5174 9.10499 16.4197 9.00272 16.392 8.79813C16.3826 8.77951 16.3779 8.6166 16.3779 8.30978V3.18994H15.1084V8.68672C15.1084 9.16094 15.1459 9.50959 15.2201 9.73294C15.3411 10.0771 15.6154 10.2492 16.0432 10.2492Z" fill="#8DABCC"/>
</g>
<defs>
<clipPath id="clip0_668_1510">
<rect width="25" height="25" fill="white" transform="translate(0 0.804199)"/>
</clipPath>
</defs>
</svg>
