<svg width="18" height="19" viewBox="0 0 18 19" fill="none" xmlns="http://www.w3.org/2000/svg">
<g clip-path="url(#clip0_668_1473)">
<path d="M16.7344 3.48022H1.26562C0.930075 3.4806 0.608374 3.61406 0.371104 3.85133C0.133834 4.0886 0.000372214 4.4103 0 4.74585L0 14.8627C0.000372214 15.1982 0.133834 15.5199 0.371104 15.7572C0.608374 15.9944 0.930075 16.1279 1.26562 16.1283H16.7344C17.0699 16.1279 17.3916 15.9944 17.6289 15.7572C17.8662 15.5199 17.9996 15.1982 18 14.8627V4.74581C17.9996 4.41027 17.8662 4.08858 17.6289 3.85132C17.3916 3.61405 17.0699 3.4806 16.7344 3.48022ZM9 10.4398L2.20328 4.60522H15.7967L9 10.4398ZM6.4157 9.70401L1.125 14.2457V5.16224L6.4157 9.70401ZM7.27928 10.4453L8.6336 11.6079C8.7356 11.6955 8.86558 11.7436 9 11.7436C9.13442 11.7436 9.2644 11.6955 9.3664 11.6079L10.7207 10.4453L16.0302 15.0032H1.96973L7.27928 10.4453ZM11.5843 9.70401L16.875 5.16224V14.2458L11.5843 9.70401Z" fill="#8DABCC"/>
</g>
<defs>
<clipPath id="clip0_668_1473">
<rect width="18" height="18" fill="white" transform="translate(0 0.804199)"/>
</clipPath>
</defs>
</svg>
