<svg width="15" height="15" viewBox="0 0 15 15" fill="none" xmlns="http://www.w3.org/2000/svg">
<g clip-path="url(#clip0_659_1858)">
<path d="M6.03703 12.0688C7.37775 12.0689 8.68012 11.6215 9.73785 10.7977L13.7283 14.7882C14.0264 15.0761 14.5014 15.0678 14.7893 14.7697C15.0702 14.4789 15.0702 14.0179 14.7893 13.7272L10.7989 9.73668C12.8432 7.10509 12.3671 3.31453 9.73555 1.27021C7.10396 -0.774105 3.31343 -0.298055 1.26911 2.33353C-0.775204 4.96512 -0.299154 8.75568 2.33243 10.8C3.39189 11.623 4.69543 12.0695 6.03703 12.0688ZM2.83072 2.82951C4.60153 1.05866 7.47259 1.05863 9.24344 2.82944C11.0143 4.60026 11.0143 7.47132 9.24351 9.24217C7.47269 11.013 4.60163 11.013 2.83078 9.24223C2.83075 9.2422 2.83075 9.2422 2.83072 9.24217C1.0599 7.48425 1.04947 4.62366 2.80738 2.85284C2.81515 2.84504 2.82292 2.83728 2.83072 2.82951Z" fill="#89AEEA"/>
</g>
<defs>
<clipPath id="clip0_659_1858">
<rect width="15" height="15" fill="white"/>
</clipPath>
</defs>
</svg>
