<svg width="18" height="19" viewBox="0 0 18 19" fill="none" xmlns="http://www.w3.org/2000/svg">
<g clip-path="url(#clip0_668_1477)">
<path d="M15.5022 17.4669H5.16507C4.99458 17.4669 4.83106 17.3992 4.71051 17.2787C4.58995 17.1581 4.52222 16.9946 4.52222 16.8241C4.52222 16.6536 4.58995 16.4901 4.71051 16.3695C4.83106 16.249 4.99458 16.1812 5.16507 16.1812H15.5022C15.764 16.2035 16.0241 16.1223 16.2267 15.955C16.4293 15.7877 16.5582 15.5477 16.5858 15.2864V7.83437C16.5581 7.57317 16.4291 7.33324 16.2265 7.16604C16.024 6.99884 15.7639 6.9177 15.5022 6.94003C15.3317 6.94003 15.1682 6.8723 15.0476 6.75174C14.9271 6.63118 14.8594 6.46766 14.8594 6.29717C14.8594 6.12667 14.9271 5.96316 15.0476 5.8426C15.1682 5.72204 15.3317 5.65431 15.5022 5.65431C16.1051 5.63089 16.6927 5.84704 17.1366 6.25554C17.5806 6.66404 17.8448 7.23166 17.8715 7.83437V15.2859C17.8449 15.8887 17.5808 16.4565 17.1368 16.8652C16.6929 17.2739 16.1052 17.4902 15.5022 17.4669Z" fill="#8DABCC"/>
<path d="M7.47267 6.94026H5.16507C4.99458 6.94026 4.83106 6.87253 4.71051 6.75197C4.58995 6.63141 4.52222 6.46789 4.52222 6.2974C4.52222 6.1269 4.58995 5.96339 4.71051 5.84283C4.83106 5.72227 4.99458 5.65454 5.16507 5.65454H7.47267C7.64317 5.65454 7.80668 5.72227 7.92724 5.84283C8.0478 5.96339 8.11553 6.1269 8.11553 6.2974C8.11553 6.46789 8.0478 6.63141 7.92724 6.75197C7.80668 6.87253 7.64317 6.94026 7.47267 6.94026Z" fill="#8DABCC"/>
<path d="M3.65152 18.1125H2.28403C1.71277 18.1112 1.16525 17.8838 0.761307 17.4798C0.357361 17.0759 0.129885 16.5284 0.128662 15.9571V6.52766C0.130021 5.95648 0.357557 5.4091 0.761488 5.00527C1.16542 4.60143 1.71286 4.37403 2.28403 4.3728H3.65152C4.22269 4.37403 4.77013 4.60143 5.17407 5.00527C5.578 5.4091 5.80553 5.95648 5.80689 6.52766V15.9571C5.80567 16.5284 5.57819 17.0759 5.17425 17.4798C4.7703 17.8838 4.22278 18.1112 3.65152 18.1125ZM2.28403 5.65852C2.05352 5.65865 1.83247 5.75025 1.66943 5.9132C1.50638 6.07615 1.41465 6.29714 1.41438 6.52766V15.9571C1.41451 16.1877 1.50618 16.4088 1.66924 16.5719C1.83231 16.7349 2.05343 16.8266 2.28403 16.8267H3.65152C3.88208 16.8265 4.10313 16.7348 4.26616 16.5717C4.42919 16.4087 4.5209 16.1877 4.52118 15.9571V6.52766C4.52077 6.29719 4.429 6.07627 4.26598 5.91335C4.10296 5.75043 3.88199 5.65879 3.65152 5.65852H2.28403Z" fill="#8DABCC"/>
<path d="M14.7378 9.34756H7.65555C7.48506 9.34756 7.32154 9.27983 7.20098 9.15928C7.08042 9.03872 7.0127 8.8752 7.0127 8.70471V2.14139C7.0127 1.9709 7.08042 1.80738 7.20098 1.68682C7.32154 1.56626 7.48506 1.49854 7.65555 1.49854H14.7378C14.9083 1.49854 15.0718 1.56626 15.1924 1.68682C15.3129 1.80738 15.3806 1.9709 15.3806 2.14139V8.70471C15.3806 8.8752 15.3129 9.03872 15.1924 9.15928C15.0718 9.27983 14.9083 9.34756 14.7378 9.34756ZM8.29841 8.06185H14.0949V2.78168H8.29841V8.06185Z" fill="#8DABCC"/>
<path d="M8.54539 12.2034C8.71143 12.1968 8.86847 12.1262 8.9836 12.0063C9.09874 11.8865 9.16304 11.7268 9.16304 11.5606C9.16304 11.3944 9.09874 11.2347 8.9836 11.1148C8.86847 10.995 8.71143 10.9244 8.54539 10.9177C8.37934 10.9244 8.2223 10.995 8.10717 11.1148C7.99203 11.2347 7.92773 11.3944 7.92773 11.5606C7.92773 11.7268 7.99203 11.8865 8.10717 12.0063C8.2223 12.1262 8.37934 12.1968 8.54539 12.2034Z" fill="#8DABCC"/>
<path d="M11.197 12.2034C11.363 12.1968 11.5201 12.1262 11.6352 12.0063C11.7503 11.8865 11.8146 11.7268 11.8146 11.5606C11.8146 11.3944 11.7503 11.2347 11.6352 11.1148C11.5201 10.995 11.363 10.9244 11.197 10.9177C11.031 10.9244 10.8739 10.995 10.7588 11.1148C10.6436 11.2347 10.5793 11.3944 10.5793 11.5606C10.5793 11.7268 10.6436 11.8865 10.7588 12.0063C10.8739 12.1262 11.031 12.1968 11.197 12.2034Z" fill="#8DABCC"/>
<path d="M13.8486 12.2034C14.0147 12.1968 14.1717 12.1262 14.2868 12.0063C14.402 11.8865 14.4663 11.7268 14.4663 11.5606C14.4663 11.3944 14.402 11.2347 14.2868 11.1148C14.1717 10.995 14.0147 10.9244 13.8486 10.9177C13.6826 10.9244 13.5255 10.995 13.4104 11.1148C13.2953 11.2347 13.231 11.3944 13.231 11.5606C13.231 11.7268 13.2953 11.8865 13.4104 12.0063C13.5255 12.1262 13.6826 12.1968 13.8486 12.2034Z" fill="#8DABCC"/>
<path d="M8.54539 14.3555C8.71143 14.3489 8.86847 14.2783 8.9836 14.1584C9.09874 14.0386 9.16304 13.8789 9.16304 13.7127C9.16304 13.5465 9.09874 13.3868 8.9836 13.2669C8.86847 13.1471 8.71143 13.0765 8.54539 13.0698C8.37934 13.0765 8.2223 13.1471 8.10717 13.2669C7.99203 13.3868 7.92773 13.5465 7.92773 13.7127C7.92773 13.8789 7.99203 14.0386 8.10717 14.1584C8.2223 14.2783 8.37934 14.3489 8.54539 14.3555Z" fill="#8DABCC"/>
<path d="M11.197 14.3555C11.363 14.3489 11.5201 14.2783 11.6352 14.1584C11.7503 14.0386 11.8146 13.8789 11.8146 13.7127C11.8146 13.5465 11.7503 13.3868 11.6352 13.2669C11.5201 13.1471 11.363 13.0765 11.197 13.0698C11.031 13.0765 10.8739 13.1471 10.7588 13.2669C10.6436 13.3868 10.5793 13.5465 10.5793 13.7127C10.5793 13.8789 10.6436 14.0386 10.7588 14.1584C10.8739 14.2783 11.031 14.3489 11.197 14.3555Z" fill="#8DABCC"/>
<path d="M13.8486 14.3555C14.0147 14.3489 14.1717 14.2783 14.2868 14.1584C14.402 14.0386 14.4663 13.8789 14.4663 13.7127C14.4663 13.5465 14.402 13.3868 14.2868 13.2669C14.1717 13.1471 14.0147 13.0765 13.8486 13.0698C13.6826 13.0765 13.5255 13.1471 13.4104 13.2669C13.2953 13.3868 13.231 13.5465 13.231 13.7127C13.231 13.8789 13.2953 14.0386 13.4104 14.1584C13.5255 14.2783 13.6826 14.3489 13.8486 14.3555Z" fill="#8DABCC"/>
</g>
<defs>
<clipPath id="clip0_668_1477">
<rect width="18" height="18" fill="white" transform="translate(0 0.804199)"/>
</clipPath>
</defs>
</svg>
