<svg width="70" height="70" viewBox="0 0 70 70" fill="none" xmlns="http://www.w3.org/2000/svg">
<path d="M16.1228 51.8903H26.0583C27.1542 51.8903 28.0454 50.9991 28.0454 49.9032V47.9161C28.0454 46.8203 27.1542 45.929 26.0583 45.929H16.1228C15.027 45.929 14.1357 46.8203 14.1357 47.9161V49.9032C14.1357 50.9991 15.027 51.8903 16.1228 51.8903ZM20.097 49.9032V47.9161H22.0841V49.9032H20.097ZM26.0593 49.9032H24.0712V47.9161H26.0583L26.0593 49.9032ZM16.1228 47.9161H18.1099V49.9032H16.1228V47.9161Z" fill="white"/>
<path d="M53.8774 61.8258H61.8258V55.8645H53.8774V61.8258ZM55.8645 57.8516H59.8387V59.8387H55.8645V57.8516Z" fill="white"/>
<path d="M43.9419 61.8258H51.8903V55.8645H43.9419V61.8258ZM45.929 57.8516H49.9032V59.8387H45.929V57.8516Z" fill="white"/>
<path d="M60.8325 28.0452C63.5717 28.0452 65.8002 25.8166 65.8002 23.0774V9.16775C65.8002 6.42854 63.5717 4.20001 60.8325 4.20001H36.9873C34.2481 4.20001 32.0196 6.42854 32.0196 9.16775V23.0774C32.0196 25.8166 34.2481 28.0452 36.9873 28.0452H42.9486V30.2509L42.6187 30.3333C40.8035 30.7864 39.4632 32.234 39.0896 34.0065H9.16794C6.42872 34.0065 4.2002 36.235 4.2002 38.9742V60.8323C4.2002 63.5715 6.42872 65.8 9.16794 65.8H60.8325C63.5717 65.8 65.8002 63.5715 65.8002 60.8323V38.9742C65.8002 36.235 63.5717 34.0065 60.8325 34.0065H58.7301C58.3565 32.234 57.0162 30.7864 55.201 30.3333L54.8712 30.2509V28.0452H60.8325ZM36.9873 6.18711H60.8325C62.4758 6.18711 63.8131 7.52443 63.8131 9.16775V20.0968H34.0066V9.16775C34.0066 7.52443 35.344 6.18711 36.9873 6.18711ZM34.0066 23.0774V22.0839H63.8131V23.0774C63.8131 24.7208 62.4758 26.0581 60.8325 26.0581H36.9873C35.344 26.0581 34.0066 24.7208 34.0066 23.0774ZM30.0325 53.8774H12.1486V35.9936H30.0325V53.8774ZM29.8496 55.8645C29.4383 57.018 28.3454 57.8516 27.0518 57.8516H15.1292C13.8356 57.8516 12.7427 57.018 12.3314 55.8645H29.8496ZM32.0196 35.9936H35.9937V39.9678H32.0196V35.9936ZM9.16794 35.9936H10.1615V39.9678H6.18729V38.9742C6.18729 37.3309 7.52461 35.9936 9.16794 35.9936ZM6.18729 60.8323V41.9549H10.1615V54.871C10.1615 57.6102 12.39 59.8387 15.1292 59.8387H27.0518C29.791 59.8387 32.0196 57.6102 32.0196 54.871V41.9549H35.9937V63.8129H9.16794C7.52461 63.8129 6.18729 62.4756 6.18729 60.8323ZM60.8325 63.8129H37.9808V41.9549H63.8131V60.8323C63.8131 62.4756 62.4758 63.8129 60.8325 63.8129ZM63.8131 38.9742V39.9678H37.9808V35.9936H60.8325C62.4758 35.9936 63.8131 37.3309 63.8131 38.9742ZM56.6735 34.0065H41.1463C41.4652 33.158 42.1796 32.4903 43.1006 32.2598L44.0633 32.0194H53.7574L54.7192 32.2598C55.6402 32.4903 56.3545 33.158 56.6735 34.0065ZM52.8841 30.0323H44.9357V28.0452H52.8841V30.0323Z" fill="white"/>
<path d="M47.9164 8.17419H37.981V18.1097H47.9164V8.17419ZM45.9293 16.1226H39.9681V10.1613H45.9293V16.1226Z" fill="white"/>
<path d="M49.9033 8.17419H59.8388V10.1613H49.9033V8.17419Z" fill="white"/>
<path d="M49.9033 12.1484H59.8388V14.1355H49.9033V12.1484Z" fill="white"/>
<path d="M49.9033 16.1226H59.8388V18.1097H49.9033V16.1226Z" fill="white"/>
</svg>
