<svg width="25" height="26" viewBox="0 0 25 26" fill="none" xmlns="http://www.w3.org/2000/svg">
<g clip-path="url(#clip0_668_1506)">
<path d="M24.6094 13.3042C24.6094 6.61475 19.1895 1.19482 12.5 1.19482C5.81055 1.19482 0.390625 6.61475 0.390625 13.3042C0.390625 19.3481 4.81885 24.3579 10.6079 25.2671V16.8047H7.53174V13.3042H10.6079V10.6362C10.6079 7.60156 12.4146 5.92529 15.1816 5.92529C16.5068 5.92529 17.8926 6.16162 17.8926 6.16162V9.14014H16.3652C14.8613 9.14014 14.3921 10.0737 14.3921 11.0312V13.3042H17.7505L17.2134 16.8047H14.3921V25.2671C20.1812 24.3579 24.6094 19.3481 24.6094 13.3042Z" fill="#8DABCC"/>
</g>
<defs>
<clipPath id="clip0_668_1506">
<rect width="25" height="25" fill="white" transform="translate(0 0.804199)"/>
</clipPath>
</defs>
</svg>
