<svg width="25" height="26" viewBox="0 0 25 26" fill="none" xmlns="http://www.w3.org/2000/svg">
<g clip-path="url(#clip0_668_1508)">
<path d="M12.5 0.804199C5.5975 0.804199 0 6.4017 0 13.3042C0 20.2067 5.5975 25.8042 12.5 25.8042C19.4025 25.8042 25 20.2067 25 13.3042C25 6.4017 19.4025 0.804199 12.5 0.804199ZM8.86765 19.7007H5.82333V10.5418H8.86765V19.7007ZM7.34558 9.29114H7.32574C6.30417 9.29114 5.64346 8.5879 5.64346 7.70899C5.64346 6.81025 6.32439 6.12646 7.3658 6.12646C8.40721 6.12646 9.04808 6.81025 9.06792 7.70899C9.06792 8.5879 8.40721 9.29114 7.34558 9.29114ZM19.8448 19.7007H16.8009V14.8009C16.8009 13.5695 16.3601 12.7297 15.2586 12.7297C14.4176 12.7297 13.9168 13.2962 13.6967 13.843C13.6162 14.0387 13.5965 14.3122 13.5965 14.5859V19.7007H10.5524C10.5524 19.7007 10.5923 11.401 10.5524 10.5418H13.5965V11.8386C14.0011 11.2145 14.7249 10.3268 16.3401 10.3268C18.343 10.3268 19.8448 11.6358 19.8448 14.449V19.7007Z" fill="#8DABCC"/>
</g>
<defs>
<clipPath id="clip0_668_1508">
<rect width="25" height="25" fill="white" transform="translate(0 0.804199)"/>
</clipPath>
</defs>
</svg>
