<svg width="70" height="70" viewBox="0 0 70 70" fill="none" xmlns="http://www.w3.org/2000/svg">
<g clip-path="url(#clip0_545_2707)">
<path d="M19.55 43.6097C18.9838 43.6097 18.5247 44.0687 18.5247 44.6351C18.5247 45.2015 18.9838 45.6605 19.55 45.6605H19.8235C20.3898 45.6605 20.8489 45.2015 20.8489 44.6351C20.8489 44.0687 20.3898 43.6097 19.8235 43.6097H19.55Z" fill="#022257"/>
<path d="M23.925 44.8402C23.3588 44.8402 22.8997 45.2992 22.8997 45.8656C22.8997 46.432 23.3588 46.891 23.925 46.891H24.1985C24.7648 46.891 25.2239 46.432 25.2239 45.8656C25.2239 45.2992 24.7648 44.8402 24.1985 44.8402H23.925Z" fill="#022257"/>
<path d="M45.1165 41.5589H44.843C44.2766 41.5589 43.8176 42.0179 43.8176 42.5843C43.8176 43.1508 44.2766 43.6097 44.843 43.6097H45.1165C45.6829 43.6097 46.1418 43.1508 46.1418 42.5843C46.1418 42.0179 45.6829 41.5589 45.1165 41.5589Z" fill="#022257"/>
<path d="M46.2102 22.6918H45.9368C45.3703 22.6918 44.9114 23.1507 44.9114 23.7171C44.9114 24.2836 45.3703 24.7425 45.9368 24.7425H46.2102C46.7766 24.7425 47.2356 24.2836 47.2356 23.7171C47.2356 23.1507 46.7766 22.6918 46.2102 22.6918Z" fill="#022257"/>
<path d="M14.6282 28.5707C14.0619 28.5707 13.6028 29.0296 13.6028 29.5961C13.6028 30.1625 14.0619 30.6214 14.6282 30.6214H14.9016C15.4679 30.6214 15.927 30.1625 15.927 29.5961C15.927 29.0296 15.4679 28.5707 14.9016 28.5707H14.6282Z" fill="#022257"/>
<path d="M22.011 30.4847H21.7375C21.1713 30.4847 20.7122 30.9437 20.7122 31.5101C20.7122 32.0765 21.1713 32.5355 21.7375 32.5355H22.011C22.5773 32.5355 23.0364 32.0765 23.0364 31.5101C23.0364 30.9437 22.5773 30.4847 22.011 30.4847Z" fill="#022257"/>
<path d="M36.5032 31.7152C37.0696 31.7152 37.5286 31.2562 37.5286 30.6898C37.5286 30.1234 37.0696 29.6644 36.5032 29.6644H36.2297C35.6633 29.6644 35.2043 30.1234 35.2043 30.6898C35.2043 31.2562 35.6633 31.7152 36.2297 31.7152H36.5032Z" fill="#022257"/>
<path d="M8.88599 30.6214C8.3197 30.6214 7.8606 31.0804 7.8606 31.6468C7.8606 32.2133 8.3197 32.6722 8.88599 32.6722H9.15942C9.72571 32.6722 10.1848 32.2133 10.1848 31.6468C10.1848 31.0804 9.72571 30.6214 9.15942 30.6214H8.88599Z" fill="#022257"/>
<path d="M43.3391 18.3168C42.7727 18.3168 42.3137 18.7757 42.3137 19.3421C42.3137 19.9086 42.7727 20.3675 43.3391 20.3675H43.6125C44.179 20.3675 44.6379 19.9086 44.6379 19.3421C44.6379 18.7757 44.179 18.3168 43.6125 18.3168H43.3391Z" fill="#022257"/>
<path d="M29.3938 25.2894C28.8275 25.2894 28.3684 25.7484 28.3684 26.3148C28.3684 26.8812 28.8275 27.3402 29.3938 27.3402H29.6672C30.2335 27.3402 30.6926 26.8812 30.6926 26.3148C30.6926 25.7484 30.2335 25.2894 29.6672 25.2894H29.3938Z" fill="#022257"/>
<path d="M37.5969 21.598C37.0305 21.598 36.5715 22.057 36.5715 22.6234C36.5715 23.1898 37.0305 23.6488 37.5969 23.6488H37.8704C38.4368 23.6488 38.8958 23.1898 38.8958 22.6234C38.8958 22.057 38.4368 21.598 37.8704 21.598H37.5969Z" fill="#022257"/>
<path d="M23.7883 24.0589C24.3546 24.0589 24.8137 23.6 24.8137 23.0336C24.8137 22.4671 24.3546 22.0082 23.7883 22.0082H23.5149C22.9486 22.0082 22.4895 22.4671 22.4895 23.0336C22.4895 23.6 22.9486 24.0589 23.5149 24.0589H23.7883Z" fill="#022257"/>
<path d="M69.249 32.5337L60.7285 26.3603C59.4215 25.4131 57.9765 24.7576 56.4785 24.3908L53.3188 21.1153C52.9256 20.7077 52.2764 20.6959 51.869 21.0893C51.4614 21.4823 51.4498 22.1315 51.843 22.539L53.2977 24.047C50.8968 24.1058 48.5093 24.8756 46.46 26.3603L44.2182 27.9845C40.8063 25.5404 36.2397 25.5501 32.8375 28.0152L31.5911 28.9182C30.2393 29.8975 28.4227 29.8975 27.0708 28.9182L26.2644 28.334C25.8059 28.0015 25.1648 28.104 24.8324 28.5627C24.5001 29.0214 24.6025 29.6624 25.0612 29.9947L25.8675 30.5789C27.9391 32.08 30.7228 32.08 32.7944 30.5789L34.0407 29.6759C36.5367 27.8675 39.8261 27.7339 42.4405 29.2727L36.2349 33.769H2.54182L10.4749 28.0211C13.6143 25.7461 17.8412 25.4756 21.2434 27.3319C21.7404 27.6028 22.3634 27.42 22.6347 26.9228C22.9059 26.4257 22.7229 25.8029 22.2256 25.5315C20.7307 24.716 19.1035 24.2434 17.4562 24.1031L20.3955 21.0561C21.1078 20.3175 22.0653 19.9108 23.0913 19.9108C24.1173 19.9108 25.0747 20.3175 25.7872 21.0561C26.8895 22.1987 28.371 22.8282 29.959 22.8282C31.5467 22.8282 33.0283 22.1987 34.1308 21.0561L37.4247 17.6412C38.7054 16.3136 40.4269 15.5822 42.2716 15.5822C44.1164 15.5822 45.8378 16.3136 47.1186 17.6412L48.5203 19.0944C48.9134 19.5017 49.5625 19.5136 49.9701 19.1204C50.3777 18.7273 50.3893 18.0782 49.9961 17.6706L48.5943 16.2174C46.9236 14.4854 44.678 13.5315 42.2715 13.5315C39.8649 13.5315 37.6193 14.4854 35.9485 16.2174L32.6547 19.6323C31.9422 20.3707 30.9849 20.7774 29.9589 20.7774C28.9328 20.7774 27.9753 20.3707 27.263 19.6323C26.1607 18.4894 24.679 17.86 23.0912 17.86C21.5033 17.86 20.0217 18.4894 18.9194 19.6323L14.5053 24.2081C12.6445 24.5007 10.8445 25.2205 9.27139 26.3603L0.751079 32.5337C0.111782 32.9971 -0.154273 33.8129 0.0892231 34.564C0.332719 35.3151 1.02684 35.8198 1.81639 35.8198H68.1836C68.9731 35.8198 69.6673 35.3153 69.9108 34.5641C70.1543 33.8129 69.8884 32.9971 69.249 32.5337ZM39.7301 33.7688L47.6631 28.0209C51.2107 25.4505 55.9775 25.4503 59.5252 28.0209L67.4583 33.7688H39.7301Z" fill="#022257"/>
<path d="M54.5515 28.1605H54.2781C53.7117 28.1605 53.2527 28.6195 53.2527 29.1859C53.2527 29.7523 53.7117 30.2113 54.2781 30.2113H54.5515C55.1179 30.2113 55.5769 29.7523 55.5769 29.1859C55.5769 28.6195 55.1179 28.1605 54.5515 28.1605Z" fill="#022257"/>
<path d="M59.1316 31.5101C59.1316 32.0765 59.5906 32.5355 60.157 32.5355H60.4304C60.9968 32.5355 61.4558 32.0765 61.4558 31.5101C61.4558 30.9437 60.9968 30.4847 60.4304 30.4847H60.157C59.5907 30.4847 59.1316 30.9437 59.1316 31.5101Z" fill="#022257"/>
<path d="M48.5359 30.2113H48.2625C47.696 30.2113 47.2371 30.6703 47.2371 31.2367C47.2371 31.8031 47.696 32.2621 48.2625 32.2621H48.5359C49.1023 32.2621 49.5613 31.8031 49.5613 31.2367C49.5613 30.6703 49.1023 30.2113 48.5359 30.2113Z" fill="#022257"/>
<path d="M42.1086 44.43H41.8352C41.2688 44.43 40.8098 44.889 40.8098 45.4554C40.8098 46.0219 41.2688 46.4808 41.8352 46.4808H42.1086C42.6751 46.4808 43.134 46.0219 43.134 45.4554C43.134 44.889 42.6751 44.43 42.1086 44.43Z" fill="#022257"/>
<path d="M48.5344 44.5668C47.968 44.5668 47.509 45.0257 47.509 45.5921C47.509 46.1586 47.968 46.6175 48.5344 46.6175H48.8079C49.3743 46.6175 49.8333 46.1586 49.8333 45.5921C49.8333 45.0257 49.3743 44.5668 48.8079 44.5668H48.5344Z" fill="#022257"/>
<path d="M37.05 43.7464H36.7766C36.2102 43.7464 35.7512 44.2054 35.7512 44.7718C35.7512 45.3383 36.2102 45.7972 36.7766 45.7972H37.05C37.6165 45.7972 38.0754 45.3383 38.0754 44.7718C38.0754 44.2054 37.6165 43.7464 37.05 43.7464Z" fill="#022257"/>
<path d="M64.9407 47.9992H60.3177L50.0926 40.5907C45.8255 37.4988 40.0911 37.4988 35.824 40.5907L30.1751 44.6837L29.8425 44.4426C29.384 44.1101 28.7429 44.2127 28.4105 44.6714C28.0782 45.1299 28.1806 45.771 28.6392 46.1033L31.256 47.9994H11.502L16.9777 44.0318C19.287 42.3586 22.2941 42.1334 24.8255 43.4446C25.3286 43.7052 25.9471 43.5086 26.2076 43.0056C26.468 42.5026 26.2714 41.8839 25.7686 41.6235C22.5445 39.9542 18.7151 40.2406 15.7744 42.3712L8.00675 47.9992H5.05786C4.49157 47.9992 4.03247 48.4582 4.03247 49.0246C4.03247 49.591 4.49157 50.05 5.05786 50.05H64.9407C65.5071 50.05 65.9661 49.591 65.9661 49.0246C65.9661 48.4582 65.5071 47.9992 64.9407 47.9992ZM34.7514 47.9992L31.923 45.9498L37.0274 42.2513C40.5751 39.6808 45.342 39.6808 48.8896 42.2513L56.8226 47.9992H34.7514Z" fill="#022257"/>
<path d="M12.1672 22.5621H12.4407C13.007 22.5621 13.4661 22.1032 13.4661 21.5368C13.4661 20.9703 13.007 20.5114 12.4407 20.5114H12.1672C11.6009 20.5114 11.1418 20.9703 11.1418 21.5368C11.1418 22.1032 11.6009 22.5621 12.1672 22.5621Z" fill="#022257"/>
<path d="M15.175 16.6832H15.4485C16.0148 16.6832 16.4739 16.2243 16.4739 15.6579C16.4739 15.0914 16.0148 14.6325 15.4485 14.6325H15.175C14.6088 14.6325 14.1497 15.0914 14.1497 15.6579C14.1497 16.2243 14.6088 16.6832 15.175 16.6832Z" fill="#022257"/>
<path d="M58.925 20.7848H59.1985C59.7649 20.7848 60.2239 20.3258 60.2239 19.7594C60.2239 19.193 59.7649 18.734 59.1985 18.734H58.925C58.3586 18.734 57.8997 19.193 57.8997 19.7594C57.8997 20.3258 58.3588 20.7848 58.925 20.7848Z" fill="#022257"/>
<path d="M54.2766 16.6832H54.55C55.1165 16.6832 55.5754 16.2243 55.5754 15.6579C55.5754 15.0914 55.1165 14.6325 54.55 14.6325H54.2766C53.7102 14.6325 53.2512 15.0914 53.2512 15.6579C53.2512 16.2243 53.7103 16.6832 54.2766 16.6832Z" fill="#022257"/>
<path d="M7.24536 19.5543H7.5188C8.08509 19.5543 8.54419 19.0954 8.54419 18.5289C8.54419 17.9625 8.08509 17.5036 7.5188 17.5036H7.24536C6.67907 17.5036 6.21997 17.9625 6.21997 18.5289C6.21997 19.0954 6.67907 19.5543 7.24536 19.5543Z" fill="#022257"/>
<path d="M64.804 41.9762C65.3704 41.9762 65.8293 41.5172 65.8293 40.9508C65.8293 40.3844 65.3704 39.9254 64.804 39.9254H58.3782C57.8117 39.9254 57.3528 40.3844 57.3528 40.9508C57.3528 41.5172 57.8117 41.9762 58.3782 41.9762H64.804Z" fill="#022257"/>
<path d="M10.8684 40.9508C10.8684 40.3844 10.4093 39.9254 9.84302 39.9254H3.00708C2.44079 39.9254 1.98169 40.3844 1.98169 40.9508C1.98169 41.5172 2.44079 41.9762 3.00708 41.9762H9.84302C10.4093 41.9762 10.8684 41.5172 10.8684 40.9508Z" fill="#022257"/>
<path d="M23.7883 54.4176H16.9524C16.3861 54.4176 15.927 54.8766 15.927 55.443C15.927 56.0094 16.3861 56.4684 16.9524 56.4684H23.7883C24.3546 56.4684 24.8137 56.0094 24.8137 55.443C24.8137 54.8766 24.3546 54.4176 23.7883 54.4176Z" fill="#022257"/>
<path d="M48.6711 54.4176H44.7063C44.1399 54.4176 43.6809 54.8766 43.6809 55.443C43.6809 56.0094 44.1399 56.4684 44.7063 56.4684H48.6711C49.2376 56.4684 49.6965 56.0094 49.6965 55.443C49.6965 54.8766 49.2376 54.4176 48.6711 54.4176Z" fill="#022257"/>
<path d="M28.5735 54.4176H28.3C27.7338 54.4176 27.2747 54.8766 27.2747 55.443C27.2747 56.0094 27.7338 56.4684 28.3 56.4684H28.5735C29.1398 56.4684 29.5989 56.0094 29.5989 55.443C29.5989 54.8766 29.1398 54.4176 28.5735 54.4176Z" fill="#022257"/>
<path d="M36.2297 54.4176H35.9563C35.3899 54.4176 34.9309 54.8766 34.9309 55.443C34.9309 56.0094 35.3899 56.4684 35.9563 56.4684H36.2297C36.7962 56.4684 37.2551 56.0094 37.2551 55.443C37.2551 54.8766 36.7962 54.4176 36.2297 54.4176Z" fill="#022257"/>
<path d="M54.4133 54.4176H54.1399C53.5735 54.4176 53.1145 54.8766 53.1145 55.443C53.1145 56.0094 53.5735 56.4684 54.1399 56.4684H54.4133C54.9798 56.4684 55.4387 56.0094 55.4387 55.443C55.4387 54.8766 54.9798 54.4176 54.4133 54.4176Z" fill="#022257"/>
</g>
<defs>
<clipPath id="clip0_545_2707">
<rect width="70" height="70" fill="white"/>
</clipPath>
</defs>
</svg>
