<svg width="15" height="15" viewBox="0 0 15 15" fill="none" xmlns="http://www.w3.org/2000/svg">
<g clip-path="url(#clip0_659_1862)">
<path d="M7.5 0.46875C3.62297 0.46875 0.46875 3.62297 0.46875 7.5C0.46875 11.377 3.62297 14.5312 7.5 14.5312C11.377 14.5312 14.5312 11.377 14.5312 7.5C14.5312 3.62297 11.377 0.46875 7.5 0.46875ZM13.1237 5.15625H10.6058C10.3847 3.73184 9.96434 2.54063 9.40699 1.71621C11.0866 2.27145 12.4458 3.53578 13.1237 5.15625ZM9.84375 7.5C9.84375 7.99113 9.81879 8.45953 9.77613 8.90625H5.22387C5.18121 8.45953 5.15625 7.99113 5.15625 7.5C5.15625 7.00887 5.18121 6.54047 5.22387 6.09375H9.77602C9.81879 6.54047 9.84375 7.00887 9.84375 7.5ZM7.5 13.5938C6.65367 13.5938 5.73527 12.1321 5.34738 9.84375H9.65262C9.26473 12.1321 8.34633 13.5938 7.5 13.5938ZM5.34738 5.15625C5.73527 2.86793 6.65367 1.40625 7.5 1.40625C8.34633 1.40625 9.26473 2.86793 9.65262 5.15625H5.34738ZM5.59301 1.71621C5.03566 2.54074 4.6152 3.73184 4.39418 5.15625H1.87629C2.55422 3.53578 3.91336 2.27145 5.59301 1.71621ZM1.57652 6.09375H4.28133C4.24172 6.54621 4.21875 7.01473 4.21875 7.5C4.21875 7.98527 4.24172 8.45379 4.28145 8.90625H1.57652C1.46918 8.45391 1.40625 7.98469 1.40625 7.5C1.40625 7.01531 1.46918 6.54609 1.57652 6.09375ZM1.87629 9.84375H4.39406C4.6152 11.2682 5.03555 12.4594 5.59289 13.2838C3.91324 12.7286 2.55422 11.4642 1.87629 9.84375ZM9.40699 13.2838C9.96434 12.4593 10.3848 11.2682 10.6058 9.84375H13.1236C12.4458 11.4642 11.0868 12.7286 9.40699 13.2838ZM13.4235 8.90625H10.7186C10.7583 8.45379 10.7812 7.98527 10.7812 7.5C10.7812 7.01473 10.7583 6.54621 10.7186 6.09375H13.4234C13.5308 6.54609 13.5936 7.01531 13.5936 7.5C13.5936 7.98469 13.5308 8.45391 13.4235 8.90625Z" fill="#89AEEA"/>
</g>
<defs>
<clipPath id="clip0_659_1862">
<rect width="15" height="15" fill="white"/>
</clipPath>
</defs>
</svg>
