<svg width="70" height="70" viewBox="0 0 70 70" fill="none" xmlns="http://www.w3.org/2000/svg">
<path d="M5.91625 11.0931L9.82227 17.9282C9.95402 18.1592 10.1745 18.3263 10.4324 18.391L14.0765 19.302L26.5751 31.8005L27.9561 30.4199L15.2619 17.7262C15.137 17.6008 14.9803 17.5121 14.8088 17.4691L11.3073 16.5906L7.98173 10.7677L10.8329 7.91653L16.6582 11.2453L17.5371 14.7468C17.5797 14.9188 17.6688 15.0758 17.7938 15.2007L30.4879 27.8949L31.8685 26.5139L19.37 14.0154L18.459 10.3733C18.3943 10.115 18.2272 9.89404 17.9962 9.76188L11.1607 5.85627C10.7795 5.63936 10.2999 5.70363 9.98897 6.01333L6.08335 9.91935C5.76923 10.2282 5.70094 10.7087 5.91625 11.0931Z" fill="#022257"/>
<path d="M46.5133 24.965L25.0314 46.4473L23.6504 45.0663L45.1327 23.5844L46.5133 24.965Z" fill="#022257"/>
<path d="M21.2714 47.2073C21.0946 46.9133 20.7773 46.7337 20.4343 46.7337H14.5756C14.233 46.7337 13.9153 46.9133 13.7389 47.2073L10.8094 52.0894C10.6234 52.3987 10.6234 52.7855 10.8094 53.0952L13.7389 57.9774C13.9153 58.271 14.233 58.451 14.5756 58.451H20.4343C20.7773 58.451 21.0946 58.271 21.2714 57.9774L24.2005 53.0952C24.3865 52.7855 24.3865 52.3987 24.2005 52.0894L21.2714 47.2073ZM19.8819 56.4979H15.1284L12.7849 52.5923L15.1284 48.6863H19.8819L22.2254 52.5923L19.8819 56.4979Z" fill="#022257"/>
<path d="M52.6574 29.1574C59.1065 29.1791 64.3526 23.9684 64.3743 17.5193C64.3775 16.5376 64.257 15.5599 64.0156 14.6083C63.8854 14.0849 63.3556 13.7663 62.8322 13.8965C62.6603 13.9394 62.5036 14.0282 62.3783 14.1531L56.2999 20.2275L51.4773 18.6203L49.8689 13.7989L55.9472 7.7193C56.3284 7.3377 56.328 6.7195 55.9464 6.33829C55.8207 6.21257 55.6624 6.12339 55.4893 6.08081C49.235 4.49695 42.8815 8.28287 41.2977 14.5368C41.0571 15.4855 40.9369 16.4608 40.9402 17.4398C40.9426 18.2086 41.0217 18.975 41.1776 19.7278L19.7929 41.1121C19.0401 40.9566 18.2737 40.8775 17.5053 40.8747C11.0336 40.8747 5.7876 46.1207 5.7876 52.5923C5.7876 59.0635 11.0336 64.3096 17.5053 64.3096C23.9765 64.3096 29.2225 59.0635 29.2225 52.5923C29.2201 51.8235 29.1406 51.0571 28.9851 50.3043L34.1046 45.1848L36.3436 47.4238C36.7252 47.805 37.343 47.805 37.7246 47.4238L38.2127 46.9353C38.6409 46.51 39.333 46.51 39.7612 46.9353C40.189 47.3619 40.1898 48.0545 39.7632 48.4823C39.7628 48.4827 39.762 48.4835 39.7612 48.4843L39.2732 48.9723C38.892 49.3535 38.892 49.9717 39.2732 50.3529L50.9213 62.0011C53.985 65.0929 58.9748 65.1154 62.0666 62.0517C65.158 58.988 65.1805 53.9978 62.1168 50.9064C62.1003 50.8896 62.0834 50.8727 62.0666 50.8558L50.4184 39.2081C50.0372 38.8269 49.419 38.8269 49.0378 39.2081L48.5497 39.6961C48.1211 40.1219 47.4294 40.1219 47.0008 39.6961C46.5734 39.2695 46.5722 38.577 46.9988 38.1496C46.9996 38.1488 47.0004 38.1484 47.0008 38.1476L47.4893 37.6592C47.8705 37.278 47.8705 36.6598 47.4893 36.2786L45.2503 34.0395L50.3698 28.92C51.1226 29.0755 51.889 29.155 52.6574 29.1574ZM56.4939 62.357C55.7846 62.3558 55.0812 62.2276 54.4172 61.9782L62.0433 54.3517C63.1941 57.413 61.6456 60.8273 58.5843 61.9782C57.9163 62.2292 57.2081 62.3578 56.4939 62.357ZM45.4318 36.9787C44.3505 38.2685 44.52 40.191 45.8098 41.2719C46.9434 42.2219 48.5955 42.2211 49.7279 41.2691L60.686 52.2368C60.8049 52.3561 60.9161 52.4819 61.0238 52.6096L52.6751 60.9583C52.547 60.851 52.4212 60.7398 52.3019 60.6205L41.3354 49.6532C42.4168 48.3633 42.2473 46.4409 40.9574 45.3599C39.8239 44.4095 38.1713 44.4107 37.039 45.3623L35.4768 43.8002L43.8693 35.4201L45.4318 36.9787ZM49.3748 27.1578L27.2237 49.3045C26.9807 49.5471 26.8831 49.8994 26.9658 50.2324C28.3055 55.4933 25.1265 60.8442 19.8652 62.1834C14.6043 63.5231 9.25337 60.3441 7.91373 55.0828C6.57451 49.8219 9.75347 44.471 15.0148 43.1314C16.6063 42.7265 18.2737 42.7265 19.8652 43.1314C20.1982 43.2129 20.5497 43.1153 20.7931 42.8739L42.939 20.7268C43.1816 20.4842 43.2792 20.1319 43.1956 19.7993C41.8652 14.5998 45.0016 9.30637 50.2011 7.97558C51.1836 7.72452 52.1999 7.62812 53.2121 7.69118L48.0613 12.844C47.7998 13.1051 47.7082 13.492 47.8251 13.8426L49.7777 19.7017C49.8753 19.9929 50.1043 20.2219 50.3959 20.3187L56.2549 22.2717C56.6052 22.3886 56.992 22.2974 57.2535 22.0363L62.4044 16.8854C62.416 17.0718 62.4221 17.2562 62.4221 17.4398C62.4494 22.8051 58.1224 27.1767 52.757 27.2044C51.9275 27.2084 51.1009 27.1064 50.2975 26.9007C49.9645 26.8176 49.6122 26.9148 49.3696 27.1574H49.3748V27.1578Z" fill="#022257"/>
<path d="M56.2781 54.8309L54.8971 56.2119L45.1328 46.4477L46.5134 45.0667L56.2781 54.8309Z" fill="#022257"/>
</svg>
