<svg width="15" height="15" viewBox="0 0 15 15" fill="none" xmlns="http://www.w3.org/2000/svg">
<g clip-path="url(#clip0_237_1632)">
<path d="M9.23729 8.57654C9.05429 8.39354 8.75755 8.39354 8.57455 8.57654L7.96864 9.18245V6.33045C7.96864 6.07165 7.75884 5.86182 7.50001 5.86182C7.24121 5.86182 7.03138 6.07165 7.03138 6.33045V9.18242L6.4255 8.57654C6.24247 8.39354 5.94577 8.39354 5.76274 8.57654C5.57974 8.75957 5.57974 9.05627 5.76274 9.2393C7.2739 10.7505 7.20021 10.6969 7.32067 10.7468C7.49333 10.8183 7.69552 10.7811 7.83139 10.6452L9.23729 9.2393C9.42032 9.0563 9.42032 8.75957 9.23729 8.57654Z" fill="white"/>
<path d="M9.84317 12.6567H5.15686C4.89806 12.6567 4.68823 12.4469 4.68823 12.1881C4.68823 11.9293 4.89806 11.7195 5.15686 11.7195H9.84317C10.102 11.7195 10.3118 11.9293 10.3118 12.1881C10.3118 12.4469 10.102 12.6567 9.84317 12.6567Z" fill="white"/>
<path d="M13.1233 4.68328C13.1214 4.55754 13.07 4.4424 12.9862 4.35861C8.50528 -0.122298 8.75275 0.109792 8.65832 0.0592382C8.50695 -0.0217178 8.93434 0.00382254 2.89427 0.00382254C2.33306 0.00382254 1.87646 0.460416 1.87646 1.02163V13.9822C1.87646 14.5434 2.33306 15 2.89427 15H12.1058C12.667 15 13.1236 14.5434 13.1236 13.9822C13.1236 13.8563 13.1238 4.72095 13.1233 4.68328ZM8.90593 4.14093V1.60382L11.5236 4.2215C8.80058 4.2215 8.9827 4.22241 8.97025 4.21986C8.93358 4.21233 8.90593 4.17979 8.90593 4.14093ZM12.1863 13.9822C12.1863 14.0266 12.1502 14.0627 12.1058 14.0627H2.89427C2.84984 14.0627 2.81373 14.0266 2.81373 13.9822V1.0216C2.81373 0.977169 2.84984 0.941055 2.89427 0.941055H7.96867V4.14093C7.96867 4.70214 8.42526 5.15873 8.98648 5.15873H12.1863V13.9822Z" fill="white"/>
</g>
<defs>
<clipPath id="clip0_237_1632">
<rect width="15" height="15" fill="white"/>
</clipPath>
</defs>
</svg>
